<?xml version="1.0" standalone="no"?>
<!DOCTYPE svg PUBLIC "-//W3C//DTD SVG 20010904//EN"
 "http://www.w3.org/TR/2001/REC-SVG-20010904/DTD/svg10.dtd">
<svg version="1.0" xmlns="http://www.w3.org/2000/svg"
 width="500.000000pt" height="500.000000pt" viewBox="0 0 500.000000 500.000000"
 preserveAspectRatio="xMidYMid meet">
<metadata>
Created by potrace 1.14, written by Peter Selinger 2001-2017
</metadata>
<g transform="translate(0.000000,500.000000) scale(0.100000,-0.100000)"
fill="#000000" stroke="none">
<path d="M1863 4595 c-108 -47 -90 -231 25 -266 86 -25 162 38 162 135 0 110
-90 173 -187 131z m101 -77 c35 -49 10 -128 -40 -128 -49 0 -81 78 -50 125 21
33 69 34 90 3z"/>
<path d="M2121 4591 c-6 -11 -12 -70 -13 -133 -3 -110 -3 -113 19 -116 25 -4
43 28 43 73 0 20 6 24 38 27 30 2 38 7 40 26 3 22 -1 25 -51 37 -41 9 -28 29
24 35 39 4 44 8 44 30 0 27 -23 37 -92 39 -32 1 -45 -4 -52 -18z"/>
<path d="M2519 4530 c-29 -17 -139 -179 -139 -204 0 -33 25 -39 51 -12 20 21
25 22 63 11 33 -10 42 -17 46 -41 6 -35 43 -46 58 -17 15 29 -6 245 -26 261
-19 14 -31 15 -53 2z m2 -148 c-26 -7 -34 15 -14 44 l18 28 5 -34 c3 -24 1
-36 -9 -38z"/>
<path d="M1521 4505 c-74 -27 -95 -44 -85 -69 5 -14 14 -17 39 -13 l31 5 33
-88 c34 -91 53 -112 80 -85 14 14 12 24 -17 107 -18 51 -29 94 -24 96 5 1 18
9 28 17 15 11 17 18 8 31 -15 26 -22 25 -93 -1z"/>
<path d="M1327 4416 c-5 -14 7 -43 45 -105 12 -18 17 -32 12 -30 -6 2 -47 19
-92 38 -69 28 -85 31 -98 20 -21 -17 -14 -36 48 -140 54 -90 67 -103 93 -93
23 9 18 39 -14 91 -17 26 -28 49 -27 51 2 1 38 -11 81 -28 82 -32 118 -35 123
-10 1 9 -25 62 -59 118 -49 82 -65 102 -84 102 -13 0 -25 -6 -28 -14z"/>
<path d="M2697 4405 c-103 -97 -61 -250 70 -250 39 0 49 5 79 37 43 48 43 71
0 97 -38 24 -69 27 -85 8 -8 -11 -5 -19 14 -37 26 -25 20 -40 -17 -40 -50 0
-63 71 -22 119 34 41 59 39 101 -6 28 -29 38 -35 52 -26 29 18 24 43 -17 83
-36 37 -44 40 -93 40 -44 0 -59 -5 -82 -25z"/>
<path d="M2920 4203 c-38 -49 -70 -98 -70 -109 0 -37 29 -37 66 0 l34 34 0
-68 c0 -72 7 -85 40 -75 16 5 20 15 20 56 l0 49 34 0 c59 0 93 63 63 117 -15
27 -85 83 -103 83 -8 0 -45 -39 -84 -87z m124 -16 c8 -12 7 -20 -4 -32 -14
-13 -18 -13 -38 1 -22 15 -22 17 -6 35 20 22 33 21 48 -4z"/>
<path d="M1043 4217 l-47 -45 25 -36 c36 -50 137 -156 149 -156 6 0 31 19 56
42 30 28 44 48 42 62 -4 30 -30 31 -63 2 -26 -23 -31 -24 -44 -11 -13 13 -12
18 14 44 23 25 26 33 15 46 -16 20 -27 19 -57 -5 -20 -16 -29 -18 -40 -9 -11
10 -9 17 13 40 14 15 24 35 22 45 -6 34 -36 27 -85 -19z"/>
<path d="M2031 4153 c-72 -50 -68 -243 5 -290 20 -13 25 -11 53 17 30 31 31
33 31 128 0 99 -6 116 -51 150 -12 9 -20 8 -38 -5z"/>
<path d="M3132 4078 c-128 -118 -130 -121 -112 -148 15 -24 53 -2 135 79 77
75 84 88 63 109 -19 19 -25 16 -86 -40z"/>
<path d="M1648 4085 c-32 -30 -42 -72 -36 -160 3 -55 8 -69 33 -95 16 -16 33
-30 38 -30 6 0 23 13 38 30 28 28 29 34 29 124 0 87 -2 97 -26 125 -31 38 -41
38 -76 6z"/>
<path d="M2391 4079 c-30 -30 -31 -33 -31 -124 0 -86 2 -96 26 -124 31 -38 53
-39 85 -5 22 23 24 34 24 124 0 95 -1 100 -29 129 -17 17 -33 31 -37 31 -4 0
-21 -14 -38 -31z"/>
<path d="M896 4075 c-24 -24 -21 -35 29 -103 25 -34 41 -62 37 -62 -5 0 -37
14 -71 30 -67 33 -96 32 -106 -1 -8 -24 6 -46 86 -140 46 -52 66 -69 82 -67
36 5 31 36 -13 84 -23 25 -39 48 -37 51 3 3 32 -7 63 -22 42 -20 62 -25 73
-18 28 18 23 43 -18 98 -47 62 -40 69 24 25 48 -33 80 -38 89 -15 10 27 -3 40
-94 94 -106 63 -122 68 -144 46z"/>
<path d="M3227 3990 c-75 -23 -126 -96 -113 -163 8 -44 58 -97 91 -97 40 0 43
28 6 62 -39 36 -40 70 -4 104 40 37 93 31 112 -13 17 -38 39 -49 59 -29 22 21
6 70 -34 106 -19 16 -41 30 -49 30 -7 0 -19 2 -27 4 -7 2 -26 0 -41 -4z"/>
<path d="M1780 3936 c0 -51 17 -76 94 -135 48 -37 60 -42 98 -39 42 3 43 4 46
41 4 47 -24 88 -97 141 -39 29 -58 36 -95 36 l-46 0 0 -44z"/>
<path d="M2219 3951 c-24 -16 -59 -46 -78 -65 -29 -30 -35 -43 -35 -83 l-1
-48 37 -3 c47 -4 85 16 148 78 45 44 50 54 50 93 0 38 -3 46 -22 51 -39 10
-53 7 -99 -23z"/>
<path d="M2558 3877 c-18 -10 -54 -40 -80 -65 -44 -42 -48 -50 -48 -93 0 -45
1 -47 33 -52 42 -6 89 18 150 78 48 48 61 75 55 116 -4 34 -66 43 -110 16z"/>
<path d="M1450 3865 c-15 -40 10 -86 80 -144 55 -46 66 -51 111 -51 40 0 49 3
50 18 4 65 -17 101 -97 163 -41 31 -59 39 -93 39 -35 0 -43 -4 -51 -25z"/>
<path d="M710 3808 c-45 -74 -63 -116 -57 -131 9 -23 32 -21 56 4 l19 21 59
-32 c32 -18 62 -36 67 -41 17 -15 63 -10 70 7 9 24 -6 38 -90 84 -41 22 -74
44 -73 48 0 4 4 16 8 27 9 22 -4 45 -25 45 -8 0 -23 -15 -34 -32z"/>
<path d="M3343 3764 c-40 -19 -82 -47 -93 -61 -36 -46 -20 -131 32 -167 36
-26 87 -19 168 22 62 32 75 42 75 62 0 36 -26 36 -100 1 -80 -38 -107 -39
-125 -6 -12 22 -11 27 5 45 10 11 41 31 69 44 76 37 90 49 82 74 -10 30 -29
27 -113 -14z"/>
<path d="M1776 3734 c-3 -9 -6 -25 -6 -37 0 -55 125 -170 184 -170 52 0 66 9
66 44 0 39 -34 86 -102 139 -40 33 -58 40 -93 40 -30 0 -45 -5 -49 -16z"/>
<path d="M2203 3711 c-83 -66 -97 -86 -97 -139 l-1 -47 39 -3 c44 -4 87 21
154 89 36 37 42 49 42 85 0 45 -10 54 -60 54 -18 0 -46 -14 -77 -39z"/>
<path d="M1473 3670 c-18 -7 -23 -17 -23 -45 0 -27 9 -45 40 -79 66 -72 111
-98 161 -94 43 3 44 4 47 40 3 32 -3 44 -40 84 -51 55 -120 104 -145 103 -10
0 -28 -4 -40 -9z"/>
<path d="M2548 3650 c-26 -17 -63 -49 -82 -70 -30 -33 -36 -48 -36 -84 0 -40
2 -44 30 -50 39 -7 64 3 127 53 58 45 83 85 83 130 0 33 -3 36 -45 45 -24 5
-40 0 -77 -24z"/>
<path d="M648 3608 c-19 -6 -35 -26 -53 -63 -28 -60 -31 -78 -12 -93 6 -5 59
-26 116 -46 92 -32 107 -35 119 -22 21 21 8 45 -35 62 l-37 16 53 18 c68 23
90 43 71 65 -14 16 -35 16 -87 0 -18 -6 -25 -2 -32 17 -17 44 -58 63 -103 46z
m50 -74 c16 -28 3 -56 -22 -48 -33 10 -37 18 -20 42 18 26 30 28 42 6z"/>
<path d="M1093 3552 c-21 -3 -73 -54 -73 -71 0 -4 30 -13 66 -20 78 -14 197
-53 268 -87 27 -13 54 -24 58 -24 5 0 8 25 6 56 l-3 56 -85 35 c-88 35 -198
61 -237 55z"/>
<path d="M2865 3531 c-162 -57 -155 -52 -155 -116 0 -64 1 -64 90 -20 55 28
197 71 263 81 26 3 47 11 47 17 0 6 -12 24 -27 39 -23 24 -34 28 -82 28 -36 0
-85 -11 -136 -29z"/>
<path d="M1803 3523 c-20 -4 -23 -11 -23 -48 0 -51 24 -84 100 -140 42 -31 56
-36 92 -33 43 3 43 3 46 45 3 40 -1 47 -47 93 -54 54 -108 91 -131 89 -8 -1
-25 -4 -37 -6z"/>
<path d="M2224 3501 c-21 -16 -56 -46 -77 -68 -31 -32 -38 -48 -40 -84 l-2
-44 39 -3 c54 -5 85 11 144 71 40 40 53 62 58 94 6 40 5 43 -20 53 -42 16 -60
12 -102 -19z"/>
<path d="M3433 3481 c-51 -14 -98 -31 -104 -38 -10 -10 -10 -24 0 -67 13 -59
31 -82 57 -72 13 5 15 15 10 50 l-7 44 86 22 c92 25 110 38 100 70 -8 26 -26
25 -142 -9z"/>
<path d="M2532 3415 c-79 -59 -102 -92 -102 -144 0 -38 2 -40 35 -47 29 -5 44
-1 84 26 79 50 121 102 121 149 0 44 -2 46 -46 55 -26 6 -40 0 -92 -39z"/>
<path d="M1474 3442 c-12 -7 -17 -31 -15 -68 1 -22 75 -101 126 -134 30 -20
69 -25 99 -14 11 4 16 19 16 45 0 31 -8 48 -37 81 -75 82 -148 117 -189 90z"/>
<path d="M988 3379 c-20 -20 -27 -34 -21 -40 6 -6 50 -19 99 -29 303 -64 573
-269 729 -555 21 -38 39 -71 41 -73 4 -6 60 26 72 41 16 19 -11 84 -75 180
-61 91 -138 174 -250 267 -147 122 -406 240 -526 240 -30 0 -46 -7 -69 -31z"/>
<path d="M2924 3382 c-290 -101 -576 -346 -685 -586 -25 -56 -25 -60 21 -90
l40 -26 16 33 c115 227 291 405 503 511 113 56 159 73 261 94 93 19 108 34 69
71 -34 31 -122 28 -225 -7z"/>
<path d="M3562 3368 c-7 -7 -12 -24 -12 -39 0 -26 -2 -27 -84 -39 -95 -13
-126 -33 -103 -64 12 -16 20 -17 93 -6 43 6 87 13 97 16 12 4 17 0 17 -14 0
-25 25 -46 45 -38 18 7 20 58 4 124 -17 68 -33 84 -57 60z"/>
<path d="M653 3336 c-57 -13 -109 -29 -118 -36 -24 -20 -18 -47 18 -73 58 -44
194 -110 211 -104 22 9 20 44 -4 59 -31 20 -23 108 10 108 27 0 46 28 33 48
-14 24 -35 24 -150 -2z m27 -86 c0 -23 -9 -25 -45 -8 -35 16 -31 28 10 28 28
0 35 -4 35 -20z"/>
<path d="M2224 3284 c-21 -15 -57 -44 -78 -66 -35 -34 -40 -45 -40 -86 l-1
-47 45 -3 c40 -2 51 2 102 43 70 55 88 81 90 130 2 61 -51 74 -118 29z"/>
<path d="M1781 3278 c-18 -49 20 -110 107 -170 34 -23 51 -29 85 -26 41 3 42
4 45 44 3 36 -2 45 -43 88 -61 62 -102 86 -148 86 -30 0 -39 -5 -46 -22z"/>
<path d="M968 3230 c-46 -47 -36 -62 52 -76 243 -38 456 -179 594 -392 l47
-72 49 0 c27 0 51 4 54 8 6 10 -45 111 -87 171 -60 87 -214 222 -331 289 -88
52 -248 102 -322 102 -15 0 -38 -13 -56 -30z"/>
<path d="M2986 3239 c-155 -44 -299 -132 -430 -263 -84 -84 -176 -221 -176
-263 0 -20 4 -22 52 -20 51 2 52 3 81 52 132 226 356 371 650 420 44 7 47 22
11 64 -22 27 -32 31 -72 30 -26 0 -78 -9 -116 -20z"/>
<path d="M3475 3133 c-72 -16 -105 -53 -105 -120 0 -79 50 -113 168 -113 89 0
125 16 106 47 -9 15 -27 18 -95 21 -69 2 -87 6 -101 22 -21 26 -12 59 19 71
13 5 55 9 92 9 83 0 110 19 75 54 -15 16 -107 21 -159 9z"/>
<path d="M535 3105 c-21 -20 -25 -34 -25 -88 0 -36 5 -68 12 -75 18 -18 219
-16 244 2 28 21 7 50 -38 54 -34 3 -36 5 -41 50 -6 57 -33 82 -89 82 -28 0
-46 -7 -63 -25z m93 -77 c3 -25 0 -28 -27 -28 -26 0 -31 4 -31 23 0 30 9 39
35 35 13 -2 21 -12 23 -30z"/>
<path d="M994 3080 c-21 -8 -64 -55 -64 -70 0 -3 30 -12 68 -19 203 -36 361
-127 470 -269 23 -30 29 -33 74 -31 27 2 51 6 54 11 9 14 -51 99 -113 160
-135 132 -403 252 -489 218z"/>
<path d="M3005 3065 c-75 -21 -201 -87 -280 -148 -72 -55 -177 -181 -173 -207
2 -9 19 -16 48 -18 44 -4 45 -3 120 77 113 121 237 185 428 222 34 6 64 15 67
19 2 4 -10 21 -27 38 -27 28 -37 32 -82 31 -28 0 -73 -7 -101 -14z"/>
<path d="M1873 3034 c-18 -14 -33 -30 -33 -35 0 -5 16 -34 36 -65 20 -31 50
-85 66 -120 26 -55 34 -64 56 -64 15 -1 38 -7 52 -14 17 -10 30 -11 42 -5 20
11 26 -5 7 -16 -7 -5 -4 -14 7 -26 9 -10 12 -19 7 -19 -6 0 -16 7 -24 16 -34
41 -124 59 -149 29 -11 -14 -6 -23 35 -65 56 -57 99 -80 147 -80 47 0 66 14
48 34 -7 9 -11 19 -8 21 2 3 59 -49 127 -115 68 -65 132 -122 143 -126 14 -4
27 1 40 14 36 35 17 67 -113 195 -96 94 -129 120 -163 129 l-43 11 33 60 c19
32 34 61 34 63 0 2 18 33 40 69 22 36 40 69 40 74 0 14 -82 64 -89 54 -3 -5
-24 -35 -46 -68 l-40 -60 -3 58 -3 58 -52 -3 -52 -3 -5 -50 -5 -50 -45 62
c-25 34 -47 63 -50 63 -3 0 -20 -12 -37 -26z"/>
<path d="M730 2895 c-8 -9 -10 -29 -7 -49 4 -28 2 -35 -14 -39 -14 -4 -20 1
-25 21 -10 49 -14 53 -36 50 -20 -3 -23 -9 -22 -45 1 -35 -3 -43 -17 -43 -12
0 -21 10 -25 28 -11 49 -14 53 -36 50 -28 -4 -35 -46 -18 -107 10 -38 14 -41
44 -41 57 0 210 30 218 43 9 15 0 83 -16 116 -14 31 -29 36 -46 16z"/>
<path d="M3373 2854 c-7 -3 -13 -16 -13 -29 0 -19 8 -27 40 -36 l40 -12 -52
-32 c-55 -32 -67 -59 -37 -78 11 -7 26 -3 57 17 28 18 42 22 42 13 0 -27 40
-57 76 -57 58 0 93 55 94 148 0 28 -22 37 -121 51 -41 6 -83 13 -94 15 -11 3
-26 3 -32 0z m163 -90 c16 -4 20 -11 16 -30 -7 -36 -46 -29 -50 9 -3 28 0 30
34 21z"/>
<path d="M643 2670 c-45 -27 -67 -73 -59 -122 11 -65 32 -108 55 -108 30 0
215 60 222 72 15 23 -29 132 -65 160 -30 25 -112 24 -153 -2z m129 -67 c35
-31 23 -51 -44 -72 -35 -10 -66 -17 -70 -14 -5 2 -8 19 -8 38 0 57 78 88 122
48z"/>
<path d="M1535 2673 c-11 -3 -23 -10 -27 -17 -14 -20 -8 -55 10 -64 22 -12
489 -24 496 -14 3 5 -14 27 -37 49 l-42 41 -190 5 c-104 3 -199 3 -210 0z"/>
<path d="M2319 2671 c-6 -2 11 -25 37 -52 l48 -49 117 0 c123 0 149 8 149 49
0 45 -17 50 -183 53 -86 2 -162 1 -168 -1z"/>
<path d="M3315 2630 c-3 -5 -14 -34 -25 -65 -17 -49 -17 -56 -4 -70 24 -23 34
-18 51 25 9 22 19 40 22 40 19 -1 29 -20 27 -55 -1 -34 2 -40 19 -40 13 0 25
11 34 33 16 34 19 36 38 24 10 -6 10 -15 1 -39 -14 -37 -5 -63 22 -63 25 0 52
56 54 110 l1 34 -105 38 c-114 41 -126 43 -135 28z"/>
<path d="M1549 2558 c0 -2 -2 -32 -4 -68 -7 -132 -36 -249 -90 -363 -10 -21
-16 -39 -14 -41 2 -2 23 -13 47 -25 l43 -22 24 55 c59 132 87 251 89 375 l1
86 -47 3 c-27 2 -48 2 -49 0z"/>
<path d="M1717 2507 c-58 -54 -72 -88 -45 -115 27 -27 65 -13 116 41 73 76
102 113 95 121 -3 3 -30 6 -58 6 -48 0 -55 -3 -108 -53z"/>
<path d="M1907 2527 l-36 -33 -6 -155 c-4 -85 -16 -212 -26 -283 -12 -75 -16
-133 -11 -138 5 -5 28 -10 52 -11 40 -2 44 0 51 28 16 57 39 331 39 466 0 164
-8 179 -63 126z"/>
<path d="M2032 2223 l3 -328 48 -3 47 -3 0 330 0 331 -50 0 -50 0 2 -327z"/>
<path d="M2190 2528 c-20 -49 12 -580 37 -621 6 -9 89 -4 100 7 3 3 -2 54 -11
113 -9 60 -22 186 -28 282 -12 171 -12 175 -41 208 -34 39 -44 41 -57 11z"/>
<path d="M2516 2543 c-17 -5 -18 -12 -13 -97 7 -110 28 -203 69 -311 41 -108
44 -111 96 -83 29 16 40 28 36 38 -75 183 -104 300 -104 416 0 43 -1 44 -32
43 -18 -1 -42 -4 -52 -6z"/>
<path d="M1769 2394 c-13 -15 -33 -30 -45 -34 -16 -6 -22 -23 -32 -86 -7 -43
-24 -124 -38 -182 -30 -117 -27 -128 38 -138 40 -7 32 -23 78 156 31 123 50
293 33 303 -6 4 -21 -5 -34 -19z"/>
<path d="M2343 2342 c6 -77 30 -196 64 -322 18 -63 19 -65 48 -61 42 4 65 19
65 39 0 9 -11 62 -24 117 -14 55 -30 132 -37 172 -11 60 -17 73 -35 77 -12 3
-32 17 -45 31 -13 13 -28 25 -33 25 -5 0 -6 -34 -3 -78z"/>
<path d="M3320 2364 c-257 -46 -479 -186 -640 -403 -61 -83 -127 -226 -155
-335 -36 -140 -36 -341 -1 -479 97 -382 386 -657 780 -742 106 -23 327 -16
439 14 567 151 883 757 683 1309 -76 211 -257 420 -459 531 -189 103 -435 143
-647 105z"/>
<path d="M1929 1742 c-29 -14 -34 -23 -37 -56 -2 -21 1 -43 7 -49 6 -6 5 -14
-5 -24 -8 -8 -14 -32 -14 -53 0 -31 6 -43 32 -65 27 -23 39 -26 72 -22 51 7
86 44 86 91 0 19 -7 39 -15 46 -11 9 -12 17 -5 30 16 30 12 57 -12 83 -31 34
-67 40 -109 19z m58 -53 c14 -14 6 -39 -12 -39 -18 0 -28 17 -21 35 6 18 18
19 33 4z m13 -108 c7 -15 6 -23 -6 -35 -8 -9 -19 -16 -23 -16 -17 0 -32 30
-26 50 8 25 41 26 55 1z"/>
<path d="M2133 1746 c-37 -17 -53 -43 -53 -88 0 -37 26 -72 60 -83 l20 -6 -20
-29 c-24 -33 -25 -44 -6 -59 23 -19 52 3 97 71 30 47 39 71 39 104 0 76 -67
120 -137 90z m71 -73 c8 -21 -17 -48 -38 -40 -9 4 -16 18 -16 32 0 20 5 25 24
25 13 0 27 -8 30 -17z"/>
<path d="M2353 1753 c-45 -8 -80 -82 -52 -110 8 -8 7 -17 -5 -34 -31 -45 -16
-98 34 -124 40 -21 72 -19 104 6 40 31 49 63 31 105 -10 24 -11 42 -5 59 23
59 -34 111 -107 98z m45 -76 c4 -22 -27 -35 -38 -16 -10 15 7 42 24 36 6 -2
12 -11 14 -20z m7 -98 c9 -26 -15 -52 -38 -43 -17 6 -23 44 -10 57 14 14 42 6
48 -14z"/>
<path d="M1741 1736 c-15 -17 -5 -43 19 -49 17 -4 20 -17 22 -103 3 -88 5 -99
22 -102 35 -7 46 25 46 131 0 54 -5 107 -10 118 -13 23 -81 27 -99 5z"/>
</g>
</svg>
