<svg id="loadingSvg" width="226.876" height="61.276" viewBox="0 0 226.876 61.276" xmlns="http://www.w3.org/2000/svg">
    <g id="svgGroup" stroke-linecap="round" fill-rule="evenodd" font-size="9pt" stroke="#000" stroke-width="0.25mm" fill="none" style="stroke:#000;stroke-width:0.25mm;fill:none">
        <path d="M 26.55 38.626 L 16.2 38.626 A 2.559 2.559 0 0 1 15.259 38.46 Q 14.636 38.216 14.213 37.613 Q 13.621 36.773 13.521 35.442 A 7.518 7.518 0 0 1 13.5 34.876 A 6.784 6.784 0 0 1 13.635 33.456 Q 14.081 31.383 15.998 31.097 A 4.418 4.418 0 0 1 16.65 31.051 L 24.6 31.051 A 7.662 7.662 0 0 0 26.034 30.926 Q 27.702 30.608 28.538 29.476 Q 29.7 27.901 29.7 26.026 L 29.7 13.726 Q 29.7 11.851 28.538 10.276 A 3.576 3.576 0 0 0 26.792 9.027 Q 26.182 8.813 25.429 8.739 A 8.533 8.533 0 0 0 24.6 8.701 L 8.85 8.701 L 8.85 57.676 Q 8.85 61.276 4.35 61.276 A 7.678 7.678 0 0 1 2.735 61.122 Q 0.378 60.612 0.052 58.421 A 5.073 5.073 0 0 1 0 57.676 L 0 5.626 Q 0 3.166 1.121 2.2 A 2.335 2.335 0 0 1 1.35 2.026 Q 2.7 1.126 4.65 1.126 L 26.55 1.126 A 9.683 9.683 0 0 1 28.793 1.402 A 12.918 12.918 0 0 1 30.525 1.951 Q 32.625 2.776 34.575 4.051 L 34.5 4.051 Q 36.45 5.476 37.5 7.763 Q 38.55 10.051 38.55 13.051 L 38.55 26.626 A 14.4 14.4 0 0 1 38.117 30.272 A 9.546 9.546 0 0 1 34.5 35.701 A 17.429 17.429 0 0 1 31.94 37.265 A 14.797 14.797 0 0 1 30.525 37.876 A 12.055 12.055 0 0 1 27.931 38.533 A 10.428 10.428 0 0 1 26.55 38.626 Z" id="0" vector-effect="non-scaling-stroke"/>
        <path d="M 80.25 18.826 L 80.25 57.526 Q 80.25 60.982 76.448 61.12 A 8.902 8.902 0 0 1 76.125 61.126 Q 72.476 61.126 71.997 58.408 A 5.09 5.09 0 0 1 71.925 57.526 L 71.925 18.826 A 4.378 4.378 0 0 1 72.171 17.296 Q 72.94 15.226 76.125 15.226 Q 79.686 15.226 80.173 17.909 A 5.14 5.14 0 0 1 80.25 18.826 Z M 81.339 8.161 A 5.75 5.75 0 0 0 81.825 5.776 Q 81.825 3.301 80.175 1.651 A 5.587 5.587 0 0 0 78.51 0.487 A 5.75 5.75 0 0 0 76.125 0.001 A 4.576 4.576 0 0 0 76.12 0.001 A 5.631 5.631 0 0 0 72.038 1.651 Q 70.35 3.301 70.35 5.776 Q 70.35 8.176 72.038 9.826 A 5.848 5.848 0 0 0 73.465 10.863 A 5.756 5.756 0 0 0 76.125 11.476 A 6.932 6.932 0 0 0 76.2 11.475 A 5.496 5.496 0 0 0 80.175 9.826 A 5.587 5.587 0 0 0 81.339 8.161 Z" id="2" vector-effect="non-scaling-stroke"/>
        <path d="M 140.475 38.626 L 130.125 38.626 A 2.559 2.559 0 0 1 129.184 38.46 Q 128.561 38.216 128.138 37.613 Q 127.546 36.773 127.446 35.442 A 7.518 7.518 0 0 1 127.425 34.876 A 6.784 6.784 0 0 1 127.56 33.456 Q 128.006 31.383 129.923 31.097 A 4.418 4.418 0 0 1 130.575 31.051 L 138.525 31.051 A 7.662 7.662 0 0 0 139.959 30.926 Q 141.627 30.608 142.463 29.476 Q 143.625 27.901 143.625 26.026 L 143.625 13.726 Q 143.625 11.851 142.463 10.276 A 3.576 3.576 0 0 0 140.717 9.027 Q 140.107 8.813 139.354 8.739 A 8.533 8.533 0 0 0 138.525 8.701 L 122.775 8.701 L 122.775 57.676 Q 122.775 61.276 118.275 61.276 A 7.678 7.678 0 0 1 116.66 61.122 Q 114.303 60.612 113.977 58.421 A 5.073 5.073 0 0 1 113.925 57.676 L 113.925 5.626 Q 113.925 3.166 115.046 2.2 A 2.335 2.335 0 0 1 115.275 2.026 Q 116.625 1.126 118.575 1.126 L 140.475 1.126 A 9.683 9.683 0 0 1 142.718 1.402 A 12.918 12.918 0 0 1 144.45 1.951 Q 146.55 2.776 148.5 4.051 L 148.425 4.051 Q 150.375 5.476 151.425 7.763 Q 152.475 10.051 152.475 13.051 L 152.475 26.626 A 14.4 14.4 0 0 1 152.042 30.272 A 9.546 9.546 0 0 1 148.425 35.701 A 17.429 17.429 0 0 1 145.865 37.265 A 14.797 14.797 0 0 1 144.45 37.876 A 12.055 12.055 0 0 1 141.856 38.533 A 10.428 10.428 0 0 1 140.475 38.626 Z" id="4" vector-effect="non-scaling-stroke"/>
        <path d="M 200.325 26.401 L 214.8 26.401 A 10.239 10.239 0 0 1 217.408 26.752 A 12.942 12.942 0 0 1 218.85 27.226 Q 220.95 28.051 222.9 29.401 L 222.825 29.401 A 8.613 8.613 0 0 1 225.62 32.649 A 10.363 10.363 0 0 1 225.825 33.076 A 11.691 11.691 0 0 1 226.727 36.246 A 15.183 15.183 0 0 1 226.875 38.401 L 226.875 48.676 A 14.4 14.4 0 0 1 226.442 52.322 A 9.546 9.546 0 0 1 222.825 57.751 A 17.876 17.876 0 0 1 219.964 59.47 A 15.74 15.74 0 0 1 218.813 59.963 A 12.165 12.165 0 0 1 216.434 60.616 A 10.126 10.126 0 0 1 214.8 60.751 L 198.45 60.751 Q 196.5 60.751 194.438 59.963 A 16.727 16.727 0 0 1 191.222 58.303 A 19.383 19.383 0 0 1 190.425 57.751 A 9.686 9.686 0 0 1 186.644 51.604 A 15.096 15.096 0 0 1 186.375 48.676 L 186.375 43.726 A 3.954 3.954 0 0 1 186.66 42.163 Q 187.388 40.46 189.971 40.235 A 9.569 9.569 0 0 1 190.8 40.201 A 8.428 8.428 0 0 1 192.443 40.346 Q 195.3 40.917 195.3 43.726 L 195.3 48.076 Q 195.3 50.026 196.425 51.601 Q 197.55 53.176 200.325 53.176 L 212.925 53.176 A 7.641 7.641 0 0 0 214.337 53.055 Q 215.109 52.909 215.698 52.589 A 3.3 3.3 0 0 0 216.825 51.601 Q 217.95 50.026 217.95 48.076 L 217.95 39.001 Q 217.95 37.126 216.825 35.513 A 3.478 3.478 0 0 0 215.069 34.221 Q 214.459 34.006 213.701 33.935 A 8.385 8.385 0 0 0 212.925 33.901 L 198.45 33.901 Q 194.799 33.901 190.95 31.403 A 21.914 21.914 0 0 1 190.425 31.051 A 10.231 10.231 0 0 1 186.53 24.184 A 15.188 15.188 0 0 1 186.375 21.976 L 186.375 13.051 A 14.549 14.549 0 0 1 186.622 10.312 A 11.083 11.083 0 0 1 187.425 7.763 Q 188.475 5.476 190.425 4.051 L 190.35 4.051 Q 192.3 2.776 194.4 1.951 Q 196.5 1.126 198.45 1.126 L 214.8 1.126 A 10.239 10.239 0 0 1 217.408 1.477 A 12.942 12.942 0 0 1 218.85 1.951 Q 220.95 2.776 222.9 4.051 L 222.825 4.051 Q 224.775 5.476 225.825 7.763 Q 226.875 10.051 226.875 13.051 L 226.875 17.476 A 3.881 3.881 0 0 1 226.577 19.057 Q 225.847 20.708 223.324 20.957 A 9.699 9.699 0 0 1 222.375 21.001 A 8.153 8.153 0 0 1 220.76 20.855 Q 218.255 20.347 217.983 18.06 A 4.944 4.944 0 0 1 217.95 17.476 L 217.95 13.726 Q 217.95 11.851 216.825 10.276 Q 215.7 8.701 212.925 8.701 L 200.325 8.701 A 7.641 7.641 0 0 0 198.913 8.822 Q 198.141 8.968 197.552 9.288 A 3.3 3.3 0 0 0 196.425 10.276 Q 195.3 11.851 195.3 13.726 L 195.3 21.376 Q 195.3 23.326 196.425 24.863 A 3.415 3.415 0 0 0 198.024 26.04 Q 198.622 26.266 199.371 26.35 A 8.517 8.517 0 0 0 200.325 26.401 Z" id="6" vector-effect="non-scaling-stroke"/>
    </g>
</svg>
